name rise44.8762peak52.3436fall86.788.mot
datacolumns 19
datarows 21
range 9.09496700000000 9.12829500000000
endheader
time	ground_force1_vx	ground_force1_vy	ground_force1_vz	ground_force1_px	ground_force1_py	ground_force1_pz	ground_force2_vx	ground_force2_vy	ground_force2_vz	ground_force2_px	ground_force2_py	ground_force2_pz	ground_torque1_x	ground_torque1_y	ground_torque1_z	ground_torque2_x	ground_torque2_y	ground_torque2_z	
9.09496700000000	49.68240600000000	753.54164500000002	62.96144500000000	0.26948600000000	0.00000000000000	0.11618000000000	0.00000000000000	0.00000000000000	0.00000000000000	0.00000000000000	0.00000000000000	0.00000000000000	0.00000000000000	22.01622600000000	0.00000000000000	0.00000000000000	0.00000000000000	0.00000000000000	
9.09662900000000	48.99278900000000	756.66276800000003	63.02595600000000	0.26857500000000	0.00000000000000	0.11613900000000	0.00000000000000	0.00000000000000	0.00000000000000	0.00000000000000	0.00000000000000	0.00000000000000	0.00000000000000	22.05801100000000	0.00000000000000	0.00000000000000	0.00000000000000	0.00000000000000	
9.09829300000000	48.30731500000000	759.67006500000002	63.09102500000000	0.26768700000000	0.00000000000000	0.11610000000000	0.00000000000000	0.00000000000000	0.00000000000000	0.00000000000000	0.00000000000000	0.00000000000000	0.00000000000000	22.10113500000000	0.00000000000000	0.00000000000000	0.00000000000000	0.00000000000000	
9.09996800000000	47.62665300000000	762.56084999999996	63.15666100000000	0.26682100000000	0.00000000000000	0.11606100000000	0.00000000000000	0.00000000000000	0.00000000000000	0.00000000000000	0.00000000000000	0.00000000000000	0.00000000000000	22.14545800000000	0.00000000000000	0.00000000000000	0.00000000000000	0.00000000000000	
9.10163400000000	46.95139200000000	765.33251600000006	63.22278500000000	0.26597600000000	0.00000000000000	0.11602400000000	0.00000000000000	0.00000000000000	0.00000000000000	0.00000000000000	0.00000000000000	0.00000000000000	0.00000000000000	22.19080200000000	0.00000000000000	0.00000000000000	0.00000000000000	0.00000000000000	
9.10329900000000	46.28204600000000	767.98255300000005	63.28923200000000	0.26514900000000	0.00000000000000	0.11598800000000	0.00000000000000	0.00000000000000	0.00000000000000	0.00000000000000	0.00000000000000	0.00000000000000	0.00000000000000	22.23694700000000	0.00000000000000	0.00000000000000	0.00000000000000	0.00000000000000	
9.10496600000000	45.61905800000000	770.50856199999998	63.35576000000000	0.26434000000000	0.00000000000000	0.11595300000000	0.00000000000000	0.00000000000000	0.00000000000000	0.00000000000000	0.00000000000000	0.00000000000000	0.00000000000000	22.28364300000000	0.00000000000000	0.00000000000000	0.00000000000000	0.00000000000000	
9.10662900000000	44.96279900000000	772.90827300000001	63.42205500000000	0.26354500000000	0.00000000000000	0.11591900000000	0.00000000000000	0.00000000000000	0.00000000000000	0.00000000000000	0.00000000000000	0.00000000000000	0.00000000000000	22.33060500000000	0.00000000000000	0.00000000000000	0.00000000000000	0.00000000000000	
9.10830100000000	44.31357400000000	775.17955900000004	63.48773200000000	0.26276400000000	0.00000000000000	0.11588700000000	0.00000000000000	0.00000000000000	0.00000000000000	0.00000000000000	0.00000000000000	0.00000000000000	0.00000000000000	22.37752100000000	0.00000000000000	0.00000000000000	0.00000000000000	0.00000000000000	
9.10997600000000	43.67162600000000	777.32045400000004	63.55234500000000	0.26199500000000	0.00000000000000	0.11585700000000	0.00000000000000	0.00000000000000	0.00000000000000	0.00000000000000	0.00000000000000	0.00000000000000	0.00000000000000	22.42405700000000	0.00000000000000	0.00000000000000	0.00000000000000	0.00000000000000	
9.11162900000000	43.03713700000000	779.32916499999999	63.61539400000000	0.26123500000000	0.00000000000000	0.11582800000000	0.00000000000000	0.00000000000000	0.00000000000000	0.00000000000000	0.00000000000000	0.00000000000000	0.00000000000000	22.46985200000000	0.00000000000000	0.00000000000000	0.00000000000000	0.00000000000000	
9.11329300000000	42.41023300000000	781.20408399999997	63.67632800000000	0.26048200000000	0.00000000000000	0.11580100000000	0.00000000000000	0.00000000000000	0.00000000000000	0.00000000000000	0.00000000000000	0.00000000000000	0.00000000000000	22.51453400000000	0.00000000000000	0.00000000000000	0.00000000000000	0.00000000000000	
9.11496400000000	41.79099100000000	782.94380400000000	63.73455300000000	0.25973600000000	0.00000000000000	0.11577500000000	0.00000000000000	0.00000000000000	0.00000000000000	0.00000000000000	0.00000000000000	0.00000000000000	0.00000000000000	22.55771000000000	0.00000000000000	0.00000000000000	0.00000000000000	0.00000000000000	
9.11663400000000	41.17943600000000	784.54712800000004	63.78944300000000	0.25899300000000	0.00000000000000	0.11575100000000	0.00000000000000	0.00000000000000	0.00000000000000	0.00000000000000	0.00000000000000	0.00000000000000	0.00000000000000	22.59898100000000	0.00000000000000	0.00000000000000	0.00000000000000	0.00000000000000	
9.11829400000000	40.57555200000000	786.01308200000005	63.84033900000000	0.25825200000000	0.00000000000000	0.11572900000000	0.00000000000000	0.00000000000000	0.00000000000000	0.00000000000000	0.00000000000000	0.00000000000000	0.00000000000000	22.63794000000000	0.00000000000000	0.00000000000000	0.00000000000000	0.00000000000000	
9.11996800000000	39.97928400000000	787.34091999999998	63.88656500000000	0.25751100000000	0.00000000000000	0.11570900000000	0.00000000000000	0.00000000000000	0.00000000000000	0.00000000000000	0.00000000000000	0.00000000000000	0.00000000000000	22.67417600000000	0.00000000000000	0.00000000000000	0.00000000000000	0.00000000000000	
9.12162900000000	39.39054100000000	788.53013899999996	63.92742700000000	0.25676900000000	0.00000000000000	0.11569100000000	0.00000000000000	0.00000000000000	0.00000000000000	0.00000000000000	0.00000000000000	0.00000000000000	0.00000000000000	22.70727900000000	0.00000000000000	0.00000000000000	0.00000000000000	0.00000000000000	
9.12329400000000	38.80920000000000	789.58048099999996	63.96222800000000	0.25602300000000	0.00000000000000	0.11567400000000	0.00000000000000	0.00000000000000	0.00000000000000	0.00000000000000	0.00000000000000	0.00000000000000	0.00000000000000	22.73684100000000	0.00000000000000	0.00000000000000	0.00000000000000	0.00000000000000	
9.12496200000000	38.23511500000000	790.49194000000000	63.99026700000000	0.25527100000000	0.00000000000000	0.11565900000000	0.00000000000000	0.00000000000000	0.00000000000000	0.00000000000000	0.00000000000000	0.00000000000000	0.00000000000000	22.76246500000000	0.00000000000000	0.00000000000000	0.00000000000000	0.00000000000000	
9.12663000000000	37.66811300000000	791.26476900000000	64.01085300000000	0.25451300000000	0.00000000000000	0.11564600000000	0.00000000000000	0.00000000000000	0.00000000000000	0.00000000000000	0.00000000000000	0.00000000000000	0.00000000000000	22.78376000000000	0.00000000000000	0.00000000000000	0.00000000000000	0.00000000000000	
9.12829500000000	37.10800800000000	791.89948400000003	64.02330600000001	0.25374700000000	0.00000000000000	0.11563400000000	0.00000000000000	0.00000000000000	0.00000000000000	0.00000000000000	0.00000000000000	0.00000000000000	0.00000000000000	22.80035100000000	0.00000000000000	0.00000000000000	0.00000000000000	0.00000000000000	
